<mxfile host="app.diagrams.net" modified="2021-11-19T16:01:45.354Z" agent="5.0 (Windows NT 10.0; Win64; x64) AppleWebKit/537.36 (KHTML, like Gecko) Chrome/96.0.4664.45 Safari/537.36" etag="g5I3DiRtux_S8zU4ye5y" version="15.8.2" type="github">
  <diagram name="Page-1" id="c4acf3e9-155e-7222-9cf6-157b1a14988f">
    <mxGraphModel dx="4126" dy="2435" grid="1" gridSize="10" guides="1" tooltips="1" connect="1" arrows="1" fold="1" page="1" pageScale="1" pageWidth="850" pageHeight="1100" background="none" math="0" shadow="0">
      <root>
        <mxCell id="0" />
        <mxCell id="1" parent="0" />
        <mxCell id="w0GCtBsa1hGH06xOI40H-10" value="&lt;p style=&quot;margin:0px;margin-top:4px;text-align:center;&quot;&gt;&lt;i&gt;&amp;lt;&amp;lt;Interface&amp;gt;&amp;gt;&lt;/i&gt;&lt;br/&gt;&lt;b&gt;Interface&lt;/b&gt;&lt;/p&gt;&lt;hr size=&quot;1&quot;/&gt;&lt;p style=&quot;margin:0px;margin-left:4px;&quot;&gt;+ field1: Type&lt;br/&gt;+ field2: Type&lt;/p&gt;&lt;hr size=&quot;1&quot;/&gt;&lt;p style=&quot;margin:0px;margin-left:4px;&quot;&gt;+ method1(Type): Type&lt;br/&gt;+ method2(Type, Type): Type&lt;/p&gt;" style="verticalAlign=top;align=left;overflow=fill;fontSize=12;fontFamily=Helvetica;html=1;" vertex="1" parent="1">
          <mxGeometry x="70" y="1170" width="190" height="140" as="geometry" />
        </mxCell>
        <mxCell id="w0GCtBsa1hGH06xOI40H-11" value="&lt;p style=&quot;margin:0px;margin-top:4px;text-align:center;&quot;&gt;&lt;i&gt;&amp;lt;&amp;lt;Interface&amp;gt;&amp;gt;&lt;/i&gt;&lt;br/&gt;&lt;b&gt;Interface&lt;/b&gt;&lt;/p&gt;&lt;hr size=&quot;1&quot;/&gt;&lt;p style=&quot;margin:0px;margin-left:4px;&quot;&gt;+ field1: Type&lt;br/&gt;+ field2: Type&lt;/p&gt;&lt;hr size=&quot;1&quot;/&gt;&lt;p style=&quot;margin:0px;margin-left:4px;&quot;&gt;+ method1(Type): Type&lt;br/&gt;+ method2(Type, Type): Type&lt;/p&gt;" style="verticalAlign=top;align=left;overflow=fill;fontSize=12;fontFamily=Helvetica;html=1;" vertex="1" parent="1">
          <mxGeometry x="330" y="1170" width="190" height="140" as="geometry" />
        </mxCell>
        <mxCell id="w0GCtBsa1hGH06xOI40H-13" value="&lt;p style=&quot;margin:0px;margin-top:4px;text-align:center;&quot;&gt;&lt;i&gt;&amp;lt;&amp;lt;Interface&amp;gt;&amp;gt;&lt;/i&gt;&lt;br/&gt;&lt;b&gt;Interface&lt;/b&gt;&lt;/p&gt;&lt;hr size=&quot;1&quot;/&gt;&lt;p style=&quot;margin:0px;margin-left:4px;&quot;&gt;+ field1: Type&lt;br/&gt;+ field2: Type&lt;/p&gt;&lt;hr size=&quot;1&quot;/&gt;&lt;p style=&quot;margin:0px;margin-left:4px;&quot;&gt;+ method1(Type): Type&lt;br/&gt;+ method2(Type, Type): Type&lt;/p&gt;" style="verticalAlign=top;align=left;overflow=fill;fontSize=12;fontFamily=Helvetica;html=1;" vertex="1" parent="1">
          <mxGeometry x="150" y="4750" width="190" height="140" as="geometry" />
        </mxCell>
        <mxCell id="w0GCtBsa1hGH06xOI40H-14" value="&lt;p style=&quot;margin:0px;margin-top:4px;text-align:center;&quot;&gt;&lt;i&gt;&amp;lt;&amp;lt;Interface&amp;gt;&amp;gt;&lt;/i&gt;&lt;br/&gt;&lt;b&gt;Interface&lt;/b&gt;&lt;/p&gt;&lt;hr size=&quot;1&quot;/&gt;&lt;p style=&quot;margin:0px;margin-left:4px;&quot;&gt;+ field1: Type&lt;br/&gt;+ field2: Type&lt;/p&gt;&lt;hr size=&quot;1&quot;/&gt;&lt;p style=&quot;margin:0px;margin-left:4px;&quot;&gt;+ method1(Type): Type&lt;br/&gt;+ method2(Type, Type): Type&lt;/p&gt;" style="verticalAlign=top;align=left;overflow=fill;fontSize=12;fontFamily=Helvetica;html=1;" vertex="1" parent="1">
          <mxGeometry x="260" y="3530" width="190" height="140" as="geometry" />
        </mxCell>
        <mxCell id="w0GCtBsa1hGH06xOI40H-19" value="App" style="swimlane;fontStyle=1;align=center;verticalAlign=top;childLayout=stackLayout;horizontal=1;startSize=26;horizontalStack=0;resizeParent=1;resizeParentMax=0;resizeLast=0;collapsible=1;marginBottom=0;" vertex="1" parent="1">
          <mxGeometry x="90" y="-240" width="160" height="138" as="geometry" />
        </mxCell>
        <mxCell id="w0GCtBsa1hGH06xOI40H-24" value="+ item: attribute" style="text;strokeColor=none;fillColor=none;align=left;verticalAlign=top;spacingLeft=4;spacingRight=4;overflow=hidden;rotatable=0;points=[[0,0.5],[1,0.5]];portConstraint=eastwest;" vertex="1" parent="w0GCtBsa1hGH06xOI40H-19">
          <mxGeometry y="26" width="160" height="26" as="geometry" />
        </mxCell>
        <mxCell id="w0GCtBsa1hGH06xOI40H-25" value="+ item: attribute" style="text;strokeColor=none;fillColor=none;align=left;verticalAlign=top;spacingLeft=4;spacingRight=4;overflow=hidden;rotatable=0;points=[[0,0.5],[1,0.5]];portConstraint=eastwest;" vertex="1" parent="w0GCtBsa1hGH06xOI40H-19">
          <mxGeometry y="52" width="160" height="26" as="geometry" />
        </mxCell>
        <mxCell id="w0GCtBsa1hGH06xOI40H-20" value="+ field: type&#xa;&#xa;" style="text;strokeColor=none;fillColor=none;align=left;verticalAlign=top;spacingLeft=4;spacingRight=4;overflow=hidden;rotatable=0;points=[[0,0.5],[1,0.5]];portConstraint=eastwest;" vertex="1" parent="w0GCtBsa1hGH06xOI40H-19">
          <mxGeometry y="78" width="160" height="26" as="geometry" />
        </mxCell>
        <mxCell id="w0GCtBsa1hGH06xOI40H-21" value="" style="line;strokeWidth=1;fillColor=none;align=left;verticalAlign=middle;spacingTop=-1;spacingLeft=3;spacingRight=3;rotatable=0;labelPosition=right;points=[];portConstraint=eastwest;" vertex="1" parent="w0GCtBsa1hGH06xOI40H-19">
          <mxGeometry y="104" width="160" height="8" as="geometry" />
        </mxCell>
        <mxCell id="w0GCtBsa1hGH06xOI40H-22" value="+ run(): void" style="text;strokeColor=none;fillColor=none;align=left;verticalAlign=top;spacingLeft=4;spacingRight=4;overflow=hidden;rotatable=0;points=[[0,0.5],[1,0.5]];portConstraint=eastwest;" vertex="1" parent="w0GCtBsa1hGH06xOI40H-19">
          <mxGeometry y="112" width="160" height="26" as="geometry" />
        </mxCell>
        <mxCell id="w0GCtBsa1hGH06xOI40H-26" value="dto" style="shape=folder;fontStyle=1;spacingTop=-5;tabWidth=50;tabHeight=20;tabPosition=left;html=1;verticalAlign=top;align=left;" vertex="1" parent="1">
          <mxGeometry x="-1510" width="1232" height="880" as="geometry" />
        </mxCell>
        <mxCell id="w0GCtBsa1hGH06xOI40H-27" value="dao" style="shape=folder;fontStyle=1;spacingTop=-5;tabWidth=40;tabHeight=14;tabPosition=left;html=1;verticalAlign=top;align=left;" vertex="1" parent="1">
          <mxGeometry x="-1520" y="1030" width="1232" height="880" as="geometry" />
        </mxCell>
        <mxCell id="w0GCtBsa1hGH06xOI40H-28" value="controller" style="shape=folder;fontStyle=1;spacingTop=-5;tabWidth=40;tabHeight=14;tabPosition=left;html=1;verticalAlign=top;align=left;" vertex="1" parent="1">
          <mxGeometry x="-1510" y="2310" width="1232" height="880" as="geometry" />
        </mxCell>
        <mxCell id="w0GCtBsa1hGH06xOI40H-29" value="service" style="shape=folder;fontStyle=1;spacingTop=-5;tabWidth=40;tabHeight=14;tabPosition=left;html=1;verticalAlign=top;align=left;" vertex="1" parent="1">
          <mxGeometry x="-1510" y="3460" width="1232" height="880" as="geometry" />
        </mxCell>
        <mxCell id="w0GCtBsa1hGH06xOI40H-30" value="ui" style="shape=folder;fontStyle=1;spacingTop=-5;tabWidth=40;tabHeight=14;tabPosition=left;html=1;verticalAlign=top;align=left;" vertex="1" parent="1">
          <mxGeometry x="-1490" y="4650" width="1232" height="880" as="geometry" />
        </mxCell>
        <mxCell id="w0GCtBsa1hGH06xOI40H-32" value="test.dao" style="shape=folder;fontStyle=1;spacingTop=-5;tabWidth=40;tabHeight=14;tabPosition=left;html=1;verticalAlign=top;align=left;" vertex="1" parent="1">
          <mxGeometry x="-1480" y="5710" width="1232" height="880" as="geometry" />
        </mxCell>
        <mxCell id="w0GCtBsa1hGH06xOI40H-33" value="test.service" style="shape=folder;fontStyle=1;spacingTop=-5;tabWidth=40;tabHeight=14;tabPosition=left;html=1;verticalAlign=top;align=left;" vertex="1" parent="1">
          <mxGeometry x="-1500" y="6880" width="1232" height="880" as="geometry" />
        </mxCell>
        <mxCell id="w0GCtBsa1hGH06xOI40H-35" value="Classname" style="swimlane;fontStyle=1;align=center;verticalAlign=top;childLayout=stackLayout;horizontal=1;startSize=26;horizontalStack=0;resizeParent=1;resizeParentMax=0;resizeLast=0;collapsible=1;marginBottom=0;" vertex="1" parent="1">
          <mxGeometry x="60" y="120" width="160" height="86" as="geometry" />
        </mxCell>
        <mxCell id="w0GCtBsa1hGH06xOI40H-36" value="+ field: type" style="text;strokeColor=none;fillColor=none;align=left;verticalAlign=top;spacingLeft=4;spacingRight=4;overflow=hidden;rotatable=0;points=[[0,0.5],[1,0.5]];portConstraint=eastwest;" vertex="1" parent="w0GCtBsa1hGH06xOI40H-35">
          <mxGeometry y="26" width="160" height="26" as="geometry" />
        </mxCell>
        <mxCell id="w0GCtBsa1hGH06xOI40H-37" value="" style="line;strokeWidth=1;fillColor=none;align=left;verticalAlign=middle;spacingTop=-1;spacingLeft=3;spacingRight=3;rotatable=0;labelPosition=right;points=[];portConstraint=eastwest;" vertex="1" parent="w0GCtBsa1hGH06xOI40H-35">
          <mxGeometry y="52" width="160" height="8" as="geometry" />
        </mxCell>
        <mxCell id="w0GCtBsa1hGH06xOI40H-38" value="+ method(type): type" style="text;strokeColor=none;fillColor=none;align=left;verticalAlign=top;spacingLeft=4;spacingRight=4;overflow=hidden;rotatable=0;points=[[0,0.5],[1,0.5]];portConstraint=eastwest;" vertex="1" parent="w0GCtBsa1hGH06xOI40H-35">
          <mxGeometry y="60" width="160" height="26" as="geometry" />
        </mxCell>
        <mxCell id="w0GCtBsa1hGH06xOI40H-39" value="Classname" style="swimlane;fontStyle=1;align=center;verticalAlign=top;childLayout=stackLayout;horizontal=1;startSize=26;horizontalStack=0;resizeParent=1;resizeParentMax=0;resizeLast=0;collapsible=1;marginBottom=0;" vertex="1" parent="1">
          <mxGeometry x="490" y="120" width="160" height="86" as="geometry" />
        </mxCell>
        <mxCell id="w0GCtBsa1hGH06xOI40H-40" value="+ field: type" style="text;strokeColor=none;fillColor=none;align=left;verticalAlign=top;spacingLeft=4;spacingRight=4;overflow=hidden;rotatable=0;points=[[0,0.5],[1,0.5]];portConstraint=eastwest;" vertex="1" parent="w0GCtBsa1hGH06xOI40H-39">
          <mxGeometry y="26" width="160" height="26" as="geometry" />
        </mxCell>
        <mxCell id="w0GCtBsa1hGH06xOI40H-41" value="" style="line;strokeWidth=1;fillColor=none;align=left;verticalAlign=middle;spacingTop=-1;spacingLeft=3;spacingRight=3;rotatable=0;labelPosition=right;points=[];portConstraint=eastwest;" vertex="1" parent="w0GCtBsa1hGH06xOI40H-39">
          <mxGeometry y="52" width="160" height="8" as="geometry" />
        </mxCell>
        <mxCell id="w0GCtBsa1hGH06xOI40H-42" value="+ method(type): type" style="text;strokeColor=none;fillColor=none;align=left;verticalAlign=top;spacingLeft=4;spacingRight=4;overflow=hidden;rotatable=0;points=[[0,0.5],[1,0.5]];portConstraint=eastwest;" vertex="1" parent="w0GCtBsa1hGH06xOI40H-39">
          <mxGeometry y="60" width="160" height="26" as="geometry" />
        </mxCell>
        <mxCell id="w0GCtBsa1hGH06xOI40H-43" value="Classname" style="swimlane;fontStyle=1;align=center;verticalAlign=top;childLayout=stackLayout;horizontal=1;startSize=26;horizontalStack=0;resizeParent=1;resizeParentMax=0;resizeLast=0;collapsible=1;marginBottom=0;" vertex="1" parent="1">
          <mxGeometry x="265" y="120" width="160" height="86" as="geometry" />
        </mxCell>
        <mxCell id="w0GCtBsa1hGH06xOI40H-44" value="+ field: type" style="text;strokeColor=none;fillColor=none;align=left;verticalAlign=top;spacingLeft=4;spacingRight=4;overflow=hidden;rotatable=0;points=[[0,0.5],[1,0.5]];portConstraint=eastwest;" vertex="1" parent="w0GCtBsa1hGH06xOI40H-43">
          <mxGeometry y="26" width="160" height="26" as="geometry" />
        </mxCell>
        <mxCell id="w0GCtBsa1hGH06xOI40H-45" value="" style="line;strokeWidth=1;fillColor=none;align=left;verticalAlign=middle;spacingTop=-1;spacingLeft=3;spacingRight=3;rotatable=0;labelPosition=right;points=[];portConstraint=eastwest;" vertex="1" parent="w0GCtBsa1hGH06xOI40H-43">
          <mxGeometry y="52" width="160" height="8" as="geometry" />
        </mxCell>
        <mxCell id="w0GCtBsa1hGH06xOI40H-46" value="+ method(type): type" style="text;strokeColor=none;fillColor=none;align=left;verticalAlign=top;spacingLeft=4;spacingRight=4;overflow=hidden;rotatable=0;points=[[0,0.5],[1,0.5]];portConstraint=eastwest;" vertex="1" parent="w0GCtBsa1hGH06xOI40H-43">
          <mxGeometry y="60" width="160" height="26" as="geometry" />
        </mxCell>
      </root>
    </mxGraphModel>
  </diagram>
</mxfile>
